<svg width="700" height="600" viewBox="0 0 700 600" fill="none" xmlns="http://www.w3.org/2000/svg">
<g clip-path="url(#clip0_7427_46260)">
<path opacity="0.6" d="M212.101 450.836L68.793 536.887" stroke="url(#paint0_linear_7427_46260)" stroke-width="1.32386"/>
<path opacity="0.6" d="M472.241 363.46C503.29 382.104 533.364 400.071 548.611 409.171C554.978 412.971 562.91 412.89 569.213 408.985L717.486 317.125" stroke="url(#paint1_linear_7427_46260)" stroke-width="1.32386"/>
<path opacity="0.6" d="M391.485 475.328C441.354 506.507 547.039 570.646 547.039 570.646" stroke="url(#paint2_linear_7427_46260)" stroke-width="1.32386"/>
<path opacity="0.6" d="M275.316 55L94.5814 164.334C86.0398 169.501 86.0728 181.903 94.6417 187.024L136.642 212.128" stroke="url(#paint3_linear_7427_46260)" stroke-width="1.32386"/>
<path opacity="0.6" d="M40.0002 270.459L209.503 168.071C215.787 164.275 223.653 164.256 229.956 168.021L270.021 191.959" stroke="url(#paint4_linear_7427_46260)" stroke-width="1.32386"/>
<path opacity="0.6" d="M524.203 395.234C472.984 425.96 323.842 516.922 283.425 541.583C277.092 545.447 269.238 545.396 262.892 541.55L41.6543 407.48" stroke="url(#paint5_linear_7427_46260)" stroke-width="1.32386"/>
<path opacity="0.6" d="M439.807 56.3242L717.709 228.096" stroke="url(#paint6_linear_7427_46260)" stroke-width="1.32386"/>
<path opacity="0.6" d="M752.901 111.926L573.518 220.152" stroke="url(#paint7_linear_7427_46260)" stroke-width="1.32386"/>
<path d="M367.324 428.331L496.732 347.244L360.705 281.051L239.902 352.208L367.324 428.331Z" fill="#08153E"/>
<g filter="url(#filter0_b_7427_46260)">
<path d="M568.592 302.083L454.419 233.026C452.93 232.128 452.021 230.512 452.021 228.772V99.0639C452.021 95.1964 456.248 92.8077 459.565 94.8097L573.739 163.867C575.227 164.765 576.136 166.381 576.136 168.121V297.818C576.136 301.697 571.91 304.085 568.592 302.072V302.083Z" fill="url(#paint8_linear_7427_46260)" fill-opacity="0.2"/>
</g>
<g opacity="0.64" filter="url(#filter1_f_7427_46260)">
<path d="M568.592 302.052L454.419 232.995C452.93 232.096 452.021 230.481 452.021 228.741V99.0327C452.021 95.1652 456.248 92.7765 459.565 94.7784L573.739 163.836C575.227 164.734 576.136 166.349 576.136 168.09V297.787C576.136 301.665 571.91 304.054 568.592 302.041V302.052Z" stroke="white" stroke-width="0.330966"/>
</g>
<path opacity="0.2" d="M568.592 302.052L454.419 232.995C452.93 232.096 452.021 230.481 452.021 228.741V99.0327C452.021 95.1652 456.248 92.7765 459.565 94.7784L573.739 163.836C575.227 164.734 576.136 166.349 576.136 168.09V297.787C576.136 301.665 571.91 304.054 568.592 302.041V302.052Z" stroke="white" stroke-width="0.330966"/>
<g filter="url(#filter2_b_7427_46260)">
<path d="M539.737 320.201L425.563 251.143C424.075 250.245 423.166 248.63 423.166 246.889V117.181C423.166 113.314 427.392 110.925 430.709 112.927L544.883 181.984C546.372 182.883 547.28 184.498 547.28 186.238V315.935C547.28 319.814 543.054 322.203 539.737 320.189V320.201Z" fill="url(#paint9_linear_7427_46260)" fill-opacity="0.2"/>
</g>
<g opacity="0.64" filter="url(#filter3_f_7427_46260)">
<path d="M539.737 320.169L425.563 251.112C424.075 250.214 423.166 248.598 423.166 246.858V117.15C423.166 113.282 427.392 110.894 430.709 112.896L544.883 181.953C546.372 182.851 547.28 184.467 547.28 186.207V315.904C547.28 319.783 543.054 322.171 539.737 320.158V320.169Z" stroke="white" stroke-width="0.330966"/>
</g>
<path opacity="0.2" d="M539.737 320.169L425.563 251.112C424.075 250.214 423.166 248.598 423.166 246.858V117.15C423.166 113.282 427.392 110.894 430.709 112.896L544.883 181.953C546.372 182.851 547.28 184.467 547.28 186.207V315.904C547.28 319.783 543.054 322.171 539.737 320.158V320.169Z" stroke="white" stroke-width="0.330966"/>
<g filter="url(#filter4_b_7427_46260)">
<path d="M513.567 336.978L399.393 267.921C397.905 267.022 396.996 265.407 396.996 263.667V133.958C396.996 130.091 401.222 127.702 404.54 129.704L518.713 198.761C520.202 199.66 521.11 201.275 521.11 203.016V332.712C521.11 336.591 516.884 338.98 513.567 336.967V336.978Z" fill="url(#paint10_linear_7427_46260)" fill-opacity="0.2"/>
</g>
<g opacity="0.64" filter="url(#filter5_f_7427_46260)">
<path d="M513.567 336.947L399.393 267.89C397.905 266.991 396.996 265.376 396.996 263.635V133.927C396.996 130.06 401.222 127.671 404.54 129.673L518.713 198.73C520.202 199.629 521.11 201.244 521.11 202.984V332.681C521.11 336.56 516.884 338.949 513.567 336.935V336.947Z" stroke="white" stroke-width="0.330966"/>
</g>
<path opacity="0.2" d="M513.567 336.947L399.393 267.89C397.905 266.991 396.996 265.376 396.996 263.635V133.927C396.996 130.06 401.222 127.671 404.54 129.673L518.713 198.73C520.202 199.629 521.11 201.244 521.11 202.984V332.681C521.11 336.56 516.884 338.949 513.567 336.935V336.947Z" stroke="white" stroke-width="0.330966"/>
<path opacity="0.64" d="M370.255 274.709L240.564 352.154V208.566L370.255 131.121V274.709Z" fill="#08153E"/>
<path d="M496.069 350.987L369.643 274.709V131.121L496.069 207.399V350.987Z" fill="#08153E"/>
<path opacity="0.64" d="M366.716 428.463L240.289 352.185V208.598L366.716 284.876V428.463Z" fill="#08153E"/>
<g filter="url(#filter6_f_7427_46260)">
<path d="M495.079 208.851L366.995 284.69L238.58 207.244L366.518 132.445L495.079 208.851Z" fill="url(#paint11_linear_7427_46260)"/>
</g>
<path opacity="0.64" d="M366.716 428.463L240.289 352.185V208.598L366.716 284.876V428.463Z" fill="url(#paint12_linear_7427_46260)"/>
<path d="M339.185 307.137V439.221C339.185 440.275 338.873 441.225 338.352 442.013C337.843 442.801 337.103 443.415 336.27 443.808C335.009 444.434 333.736 445.059 332.475 445.662C333.979 444.816 335.055 443.218 335.055 441.248V309.164C335.055 307.392 334.118 305.747 332.602 304.82L216.338 234.492C214.869 233.612 213.226 233.565 211.838 234.11C213.122 233.484 214.383 232.859 215.667 232.233H215.679C217.125 231.55 218.907 231.515 220.469 232.465L336.744 302.805C338.26 303.72 339.185 305.365 339.185 307.137Z" fill="url(#paint13_linear_7427_46260)"/>
<g filter="url(#filter7_b_7427_46260)">
<path d="M327.373 445.611L211.097 375.283C209.582 374.368 208.656 372.723 208.656 370.95V238.855C208.656 234.916 212.96 232.483 216.339 234.522L332.614 304.85C334.129 305.765 335.055 307.41 335.055 309.183V441.267C335.055 445.217 330.751 447.65 327.373 445.599V445.611Z" fill="url(#paint14_linear_7427_46260)" fill-opacity="0.2"/>
</g>
<g opacity="0.64" filter="url(#filter8_f_7427_46260)">
<path d="M327.373 445.58L211.097 375.251C209.582 374.336 208.656 372.691 208.656 370.919V238.823C208.656 234.885 212.96 232.452 216.339 234.491L332.614 304.819C334.129 305.734 335.055 307.379 335.055 309.152V441.235C335.055 445.186 330.751 447.618 327.373 445.568V445.58Z" stroke="white" stroke-width="0.661932"/>
</g>
<path opacity="0.64" d="M327.207 445.274V445.286L211.183 375.11L211.183 375.11C209.717 374.225 208.822 372.634 208.822 370.919V238.823C208.822 235.014 212.985 232.66 216.253 234.633L332.528 304.961L332.528 304.961C333.994 305.846 334.889 307.437 334.889 309.152V441.235C334.889 445.057 330.726 447.41 327.459 445.426L327.207 445.274Z" stroke="white" stroke-width="0.330966"/>
<path d="M306.381 326.274V458.358C306.381 459.412 306.068 460.362 305.548 461.15C305.038 461.937 304.298 462.551 303.465 462.945C302.204 463.571 300.931 464.196 299.67 464.799C301.174 463.953 302.25 462.354 302.25 460.385V328.301C302.25 326.529 301.313 324.884 299.797 323.957L183.534 253.629C182.064 252.749 180.422 252.702 179.033 253.247C180.317 252.621 181.579 251.996 182.863 251.37H182.874C184.321 250.687 186.102 250.652 187.664 251.602L303.939 321.941C305.455 322.857 306.381 324.501 306.381 326.274Z" fill="url(#paint15_linear_7427_46260)"/>
<g filter="url(#filter9_b_7427_46260)">
<path d="M294.568 464.747L178.293 394.419C176.777 393.504 175.852 391.859 175.852 390.087V257.991C175.852 254.053 180.155 251.62 183.534 253.659L299.809 323.987C301.325 324.902 302.25 326.547 302.25 328.32V460.403C302.25 464.354 297.946 466.786 294.568 464.736V464.747Z" fill="url(#paint16_linear_7427_46260)" fill-opacity="0.2"/>
</g>
<g opacity="0.64" filter="url(#filter10_f_7427_46260)">
<path d="M294.568 464.716L178.293 394.388C176.777 393.473 175.852 391.828 175.852 390.056V257.96C175.852 254.022 180.155 251.589 183.534 253.628L299.809 323.956C301.325 324.871 302.25 326.516 302.25 328.288V460.372C302.25 464.322 297.946 466.755 294.568 464.705V464.716Z" stroke="white" stroke-width="0.661932"/>
</g>
<path opacity="0.64" d="M294.402 464.411V464.423L178.378 394.247L178.378 394.246C176.912 393.361 176.017 391.77 176.017 390.056V257.96C176.017 254.15 180.18 251.797 183.448 253.769L299.723 324.097L299.723 324.097C301.189 324.983 302.085 326.574 302.085 328.288V460.372C302.085 464.194 297.921 466.546 294.654 464.563L294.402 464.411Z" stroke="white" stroke-width="0.330966"/>
<g filter="url(#filter11_f_7427_46260)">
<circle cx="453.045" cy="241.004" r="20.5199" fill="#08153E" fill-opacity="0.4"/>
</g>
<path d="M496.421 351.029L366.73 428.474V284.887L496.421 207.441V351.029Z" fill="#08153E"/>
<path d="M496.421 351.029L366.73 428.474V284.887L496.421 207.441V351.029Z" fill="url(#paint17_linear_7427_46260)"/>
<path d="M273.578 345.411V477.494C273.578 478.549 273.265 479.499 272.745 480.286C272.236 481.074 271.495 481.688 270.662 482.082C269.401 482.707 268.129 483.333 266.867 483.935C268.371 483.09 269.447 481.491 269.447 479.522V347.438C269.447 345.665 268.51 344.02 266.995 343.094L150.731 272.766C149.262 271.885 147.619 271.839 146.23 272.383C147.515 271.758 148.776 271.132 150.06 270.507H150.072C151.518 269.823 153.3 269.788 154.861 270.738L271.137 341.078C272.652 341.993 273.578 343.638 273.578 345.411Z" fill="url(#paint18_linear_7427_46260)"/>
<g filter="url(#filter12_b_7427_46260)">
<path d="M261.765 483.884L145.49 413.556C143.974 412.641 143.049 410.996 143.049 409.224V277.128C143.049 273.19 147.353 270.757 150.731 272.796L267.006 343.124C268.522 344.039 269.447 345.684 269.447 347.456V479.54C269.447 483.49 265.144 485.923 261.765 483.873V483.884Z" fill="url(#paint19_linear_7427_46260)" fill-opacity="0.4"/>
</g>
<g opacity="0.64" filter="url(#filter13_f_7427_46260)">
<path d="M261.765 483.853L145.49 413.525C143.974 412.61 143.049 410.965 143.049 409.192V277.097C143.049 273.158 147.353 270.726 150.731 272.764L267.006 343.093C268.522 344.008 269.447 345.653 269.447 347.425V479.509C269.447 483.459 265.144 485.892 261.765 483.841V483.853Z" stroke="white" stroke-width="0.661932"/>
</g>
<path opacity="0.64" d="M261.6 483.547V483.559L145.576 413.383L145.576 413.383C144.11 412.498 143.214 410.907 143.214 409.192V277.097C143.214 273.287 147.378 270.934 150.646 272.906L266.921 343.234L266.921 343.234C268.387 344.119 269.282 345.71 269.282 347.425V479.509C269.282 483.331 265.119 485.683 261.851 483.7L261.6 483.547Z" stroke="white" stroke-width="0.330966"/>
<g opacity="0.2">
<path d="M242.581 378.478V422L234.777 417.123V373.602L242.581 378.478Z" fill="white"/>
<path d="M201.918 396.592V353.07L216.48 362.169C219.279 363.919 221.664 366.039 223.634 368.531C225.605 371.009 227.106 373.683 228.14 376.553C229.185 379.417 229.708 382.293 229.708 385.183C229.708 388.073 229.179 390.293 228.122 391.843C227.064 393.392 225.533 394.156 223.526 394.135C221.532 394.121 219.117 393.229 216.281 391.457L207 385.657V378.283L215.02 383.294C216.522 384.233 217.759 384.702 218.732 384.701C219.718 384.693 220.45 384.294 220.931 383.503C221.424 382.706 221.67 381.592 221.67 380.161C221.67 378.716 221.424 377.301 220.931 375.916C220.45 374.525 219.718 373.224 218.732 372.014C217.747 370.789 216.498 369.704 214.984 368.758L209.721 365.469V401.468L201.918 396.592Z" fill="white"/>
<path d="M170.317 376.845L161.955 371.62L174.696 336.059L184.753 342.343L197.476 393.816L189.114 388.59L179.869 349.237L179.58 349.057L170.317 376.845ZM169.795 359.411L189.546 371.754V378.936L169.795 366.594V359.411Z" fill="white"/>
</g>
<path d="M239.393 379.72V423.242L231.59 418.366V374.844L239.393 379.72Z" fill="white"/>
<path d="M198.73 397.834V354.312L213.292 363.412C216.091 365.161 218.476 367.282 220.447 369.774C222.417 372.252 223.919 374.926 224.952 377.795C225.997 380.659 226.52 383.535 226.52 386.426C226.52 389.316 225.991 391.535 224.934 393.085C223.877 394.634 222.345 395.398 220.339 395.377C218.344 395.364 215.929 394.471 213.094 392.699L203.813 386.899V379.525L211.832 384.537C213.334 385.475 214.572 385.944 215.545 385.943C216.53 385.935 217.263 385.536 217.743 384.745C218.236 383.948 218.482 382.834 218.482 381.403C218.482 379.958 218.236 378.543 217.743 377.159C217.263 375.767 216.53 374.467 215.545 373.256C214.56 372.031 213.31 370.946 211.796 370L206.534 366.711V402.711L198.73 397.834Z" fill="white"/>
<path d="M167.13 378.087L158.768 372.862L171.509 337.302L181.565 343.585L194.289 395.058L185.926 389.832L176.681 350.479L176.393 350.299L167.13 378.087ZM166.607 360.653L186.359 372.996V380.179L166.607 367.836V360.653Z" fill="white"/>
<g opacity="0.2">
<path d="M451.99 330.42V292.707L458.896 288.72V305.349L459.326 305.1L471.079 281.686L479.356 276.907L467.236 300.791L479.5 314.538L471.239 319.307L462.292 308.967L458.896 315.716V326.433L451.99 330.42Z" fill="white"/>
<path d="M430.896 342.599L419.318 349.284V311.57L430.992 304.831C434.277 302.934 437.105 302.056 439.476 302.197C441.847 302.326 443.67 303.428 444.946 305.503C446.233 307.571 446.876 310.564 446.876 314.48C446.876 318.408 446.233 322.156 444.946 325.722C443.67 329.282 441.836 332.508 439.444 335.399C437.063 338.284 434.213 340.684 430.896 342.599ZM426.224 338.465L430.609 335.933C432.651 334.754 434.368 333.346 435.76 331.707C437.164 330.049 438.216 328.134 438.918 325.961C439.63 323.77 439.986 321.269 439.986 318.457C439.986 315.671 439.63 313.599 438.918 312.242C438.216 310.88 437.169 310.183 435.776 310.152C434.383 310.122 432.666 310.696 430.625 311.874L426.224 314.415V338.465Z" fill="white"/>
<path d="M407.608 329.177C407.481 327.765 406.933 326.928 405.966 326.664C404.998 326.4 403.685 326.746 402.027 327.704C400.9 328.355 399.948 329.088 399.172 329.905C398.396 330.709 397.8 331.55 397.386 332.427C396.982 333.299 396.78 334.14 396.78 334.95C396.759 335.638 396.881 336.156 397.147 336.506C397.423 336.85 397.8 337.068 398.279 337.16C398.757 337.24 399.31 337.234 399.937 337.141C400.565 337.037 401.234 336.871 401.947 336.644L404.881 335.76C406.306 335.306 407.613 335.042 408.804 334.969C409.995 334.895 411.026 335.055 411.898 335.447C412.77 335.84 413.445 336.506 413.923 337.445C414.412 338.378 414.662 339.627 414.673 341.193C414.662 343.507 414.152 345.803 413.142 348.08C412.143 350.339 410.697 352.481 408.804 354.507C406.922 356.514 404.653 358.285 401.995 359.819C399.358 361.341 397.062 362.201 395.105 362.397C393.16 362.587 391.639 362.084 390.544 360.887C389.46 359.672 388.891 357.723 388.838 355.041L395.52 351.183C395.594 352.404 395.908 353.279 396.461 353.807C397.024 354.316 397.774 354.516 398.709 354.405C399.656 354.276 400.724 353.868 401.915 353.181C403.084 352.505 404.1 351.723 404.961 350.833C405.833 349.937 406.508 349.001 406.986 348.025C407.465 347.049 407.704 346.106 407.704 345.198C407.704 344.351 407.486 343.765 407.05 343.439C406.625 343.108 405.997 342.979 405.168 343.053C404.35 343.12 403.345 343.332 402.154 343.688L398.598 344.71C395.844 345.526 393.67 345.572 392.075 344.848C390.48 344.124 389.688 342.365 389.699 339.572C389.688 337.295 390.215 334.996 391.278 332.676C392.352 330.35 393.824 328.167 395.695 326.13C397.567 324.092 399.693 322.385 402.074 321.01C404.498 319.611 406.614 318.868 408.421 318.782C410.24 318.69 411.654 319.206 412.664 320.329C413.674 321.452 414.195 323.128 414.226 325.356L407.608 329.177Z" fill="white"/>
</g>
<path d="M454.639 326.225V288.512L461.544 284.525V301.153L461.975 300.905L473.728 277.491L482.005 272.712L469.885 296.596L482.148 310.342L473.887 315.112L464.941 304.772L461.544 311.521V322.238L454.639 326.225Z" fill="white"/>
<path d="M433.545 338.404L421.967 345.088V307.375L433.64 300.635C436.926 298.739 439.754 297.861 442.125 298.002C444.495 298.131 446.319 299.233 447.595 301.307C448.881 303.376 449.524 306.368 449.524 310.285C449.524 314.213 448.881 317.96 447.595 321.527C446.319 325.087 444.485 328.312 442.093 331.204C439.711 334.089 436.862 336.489 433.545 338.404ZM428.872 334.27L433.258 331.738C435.299 330.559 437.016 329.15 438.409 327.511C439.812 325.854 440.865 323.939 441.566 321.766C442.279 319.575 442.635 317.073 442.635 314.262C442.635 311.475 442.279 309.404 441.566 308.047C440.865 306.684 439.817 305.988 438.425 305.957C437.032 305.926 435.315 306.5 433.274 307.679L428.872 310.22V334.27Z" fill="white"/>
<path d="M410.257 324.982C410.129 323.57 409.581 322.732 408.614 322.468C407.647 322.204 406.334 322.551 404.675 323.509C403.548 324.159 402.596 324.893 401.82 325.709C401.044 326.513 400.449 327.354 400.034 328.232C399.63 329.104 399.428 329.945 399.428 330.755C399.407 331.442 399.529 331.961 399.795 332.311C400.071 332.655 400.449 332.873 400.927 332.965C401.406 333.044 401.959 333.038 402.586 332.946C403.213 332.842 403.883 332.676 404.595 332.449L407.53 331.565C408.954 331.111 410.262 330.847 411.453 330.773C412.643 330.7 413.675 330.859 414.547 331.252C415.418 331.645 416.093 332.311 416.572 333.25C417.061 334.183 417.311 335.432 417.321 336.997C417.311 339.312 416.8 341.607 415.79 343.884C414.791 346.143 413.345 348.286 411.453 350.311C409.571 352.318 407.301 354.089 404.643 355.624C402.006 357.146 399.71 358.005 397.754 358.202C395.808 358.392 394.288 357.889 393.193 356.692C392.108 355.477 391.539 353.528 391.486 350.845L398.168 346.987C398.243 348.209 398.556 349.084 399.109 349.611C399.673 350.121 400.422 350.32 401.358 350.21C402.304 350.081 403.373 349.673 404.563 348.985C405.733 348.31 406.748 347.528 407.609 346.637C408.481 345.741 409.156 344.805 409.635 343.829C410.113 342.853 410.352 341.911 410.352 341.003C410.352 340.156 410.134 339.569 409.698 339.244C409.273 338.913 408.646 338.784 407.817 338.857C406.998 338.925 405.993 339.137 404.803 339.493L401.246 340.515C398.493 341.331 396.318 341.377 394.724 340.653C393.129 339.928 392.337 338.17 392.347 335.377C392.337 333.1 392.863 330.801 393.926 328.481C395 326.154 396.473 323.972 398.344 321.934C400.215 319.896 402.341 318.19 404.723 316.815C407.147 315.415 409.263 314.673 411.07 314.587C412.888 314.495 414.302 315.01 415.312 316.134C416.322 317.257 416.843 318.933 416.875 321.161L410.257 324.982Z" fill="white"/>
<g filter="url(#filter14_f_7427_46260)">
<path d="M371.297 280.058L272.669 342.611L151.535 272.777L253.804 205.922L371.297 280.058Z" fill="url(#paint20_linear_7427_46260)" fill-opacity="0.2"/>
</g>
<g filter="url(#filter15_f_7427_46260)">
<circle cx="8.36964" cy="8.36964" r="8.36964" transform="matrix(0.866025 -0.5 0.857167 0.515038 623.824 179.871)" fill="white" fill-opacity="0.2"/>
</g>
<circle cx="3.51271" cy="3.51271" r="3.51271" transform="matrix(0.866025 -0.5 0.857167 0.515038 632.035 179.801)" fill="white"/>
<g filter="url(#filter16_f_7427_46260)">
<circle cx="8.36964" cy="8.36964" r="8.36964" transform="matrix(0.866025 -0.5 0.857167 0.515038 122.742 211.977)" fill="white" fill-opacity="0.2"/>
</g>
<circle cx="3.51271" cy="3.51271" r="3.51271" transform="matrix(0.866025 -0.5 0.857167 0.515038 130.953 211.906)" fill="white"/>
<g filter="url(#filter17_f_7427_46260)">
<circle cx="8.36964" cy="8.36964" r="8.36964" transform="matrix(0.866025 -0.5 0.857167 0.515038 377.586 475.094)" fill="white" fill-opacity="0.2"/>
</g>
<circle cx="3.51271" cy="3.51271" r="3.51271" transform="matrix(0.866025 -0.5 0.857167 0.515038 385.797 475.023)" fill="white"/>
<g filter="url(#filter18_f_7427_46260)">
<circle cx="8.36964" cy="8.36964" r="8.36964" transform="matrix(0.866025 -0.5 0.857167 0.515038 509.971 393.676)" fill="white" fill-opacity="0.2"/>
</g>
<circle cx="3.51271" cy="3.51271" r="3.51271" transform="matrix(0.866025 -0.5 0.857167 0.515038 518.182 393.605)" fill="white"/>
<g filter="url(#filter19_f_7427_46260)">
<circle cx="8.36964" cy="8.36964" r="8.36964" transform="matrix(0.866025 -0.5 0.857167 0.515038 147.232 479.727)" fill="white" fill-opacity="0.2"/>
</g>
<circle cx="3.51271" cy="3.51271" r="3.51271" transform="matrix(0.866025 -0.5 0.857167 0.515038 155.443 479.656)" fill="white"/>
<g filter="url(#filter20_b_7427_46260)">
<path d="M406.615 164.765L346.662 200.606C345.709 201.173 344.526 201.173 343.573 200.606L283.139 164.471C281.17 163.293 281.17 160.433 283.139 159.266L343.091 123.426C344.044 122.858 345.227 122.858 346.18 123.426L406.625 159.561C408.594 160.738 408.594 163.598 406.625 164.765H406.615Z" fill="url(#paint21_linear_7427_46260)"/>
</g>
<path d="M408.091 162.156V166.771H408.081C408.112 167.802 407.63 168.853 406.615 169.463L346.673 205.303C345.72 205.871 344.536 205.871 343.583 205.303L283.139 169.168C282.102 168.548 281.631 167.465 281.683 166.403C281.683 166.403 281.676 166.4 281.662 166.393C281.662 164.953 281.662 163.491 281.673 162.051C281.725 162.997 282.217 163.912 283.139 164.469L343.583 200.604C344.536 201.172 345.72 201.172 346.673 200.604L406.615 164.763C407.599 164.175 408.091 163.165 408.091 162.156Z" fill="url(#paint22_linear_7427_46260)"/>
<path d="M316.744 158.879L336.319 147.117H350.504L375.752 162.288L349.085 178.311L316.744 158.879Z" stroke="white" stroke-width="2.64773"/>
<path d="M336.602 147.801L343.978 151.38L349.936 147.801" stroke="white" stroke-width="2.64773"/>
<path d="M336.602 163.309L350.786 154.786" stroke="white" stroke-width="2.64773"/>
<path d="M331.307 159.98L338.399 155.719" stroke="white" stroke-width="2.64773"/>
<path d="M341.709 166.379L355.894 157.856" stroke="white" stroke-width="2.64773"/>
<path d="M346.814 169.445L360.999 160.922" stroke="white" stroke-width="2.64773"/>
<g filter="url(#filter21_f_7427_46260)">
<path d="M281 233.695L281.331 166.023L344.545 204.415V275.242L281 233.695Z" fill="url(#paint23_linear_7427_46260)" fill-opacity="0.2"/>
</g>
<g filter="url(#filter22_f_7427_46260)">
<path d="M407.43 233.035L407.099 165.363L343.884 203.755V274.582L407.43 233.035Z" fill="url(#paint24_linear_7427_46260)" fill-opacity="0.2"/>
</g>
<g filter="url(#filter23_b_7427_46260)">
<path d="M483.952 139.765L424 175.606C423.047 176.173 421.864 176.173 420.911 175.606L360.477 139.471C358.508 138.293 358.508 135.433 360.477 134.266L420.429 98.4258C421.382 97.8581 422.565 97.8581 423.518 98.4258L483.963 134.561C485.932 135.738 485.932 138.598 483.963 139.765H483.952Z" fill="url(#paint25_linear_7427_46260)"/>
<path d="M483.935 139.666C485.816 138.529 485.809 135.781 483.912 134.646L423.467 98.5111C422.546 97.962 421.402 97.962 420.48 98.511C420.48 98.511 420.48 98.5111 420.48 98.5111L360.528 134.352L360.527 134.352C358.624 135.48 358.623 138.246 360.528 139.385L420.962 175.52L483.935 139.666ZM483.935 139.666H483.925L483.901 139.68L423.949 175.52L483.935 139.666ZM423.949 175.52C423.027 176.069 421.883 176.069 420.962 175.52H423.949Z" stroke="white" stroke-width="0.19858"/>
</g>
<path d="M485.429 137.156V141.771H485.419C485.45 142.802 484.968 143.853 483.952 144.463L424.01 180.303C423.057 180.871 421.874 180.871 420.921 180.303L360.477 144.168C359.44 143.548 358.969 142.465 359.021 141.403C359.021 141.403 359.014 141.4 359 141.393C359 139.953 359 138.491 359.01 137.051C359.063 137.997 359.555 138.912 360.477 139.469L420.921 175.604C421.874 176.172 423.057 176.172 424.01 175.604L483.952 139.763C484.937 139.175 485.429 138.165 485.429 137.156Z" fill="url(#paint26_linear_7427_46260)"/>
<path d="M448.45 136.059L445.028 128.691C444.903 128.413 444.413 128.248 443.936 128.321L439.17 129.062C438.561 128.592 437.886 128.135 437.145 127.712C436.41 127.288 435.622 126.898 434.815 126.547L436.092 123.793C436.218 123.515 435.933 123.237 435.457 123.164L422.695 121.185C422.211 121.112 421.728 121.278 421.596 121.549L420.318 124.309C418.286 124.442 416.287 124.746 414.381 125.223L410.892 123.211C410.542 123.005 409.972 123.005 409.622 123.211L400.268 128.605C399.918 128.811 399.918 129.135 400.268 129.34L403.757 131.352C402.929 132.458 402.4 133.61 402.168 134.781L397.396 135.516C396.919 135.595 396.634 135.88 396.76 136.158L400.182 143.525C400.315 143.803 400.798 143.969 401.281 143.896L406.047 143.155C406.656 143.625 407.325 144.075 408.059 144.505C408.801 144.929 409.588 145.319 410.403 145.67L409.118 148.424C408.993 148.702 409.277 148.98 409.761 149.052L422.523 151.032C423.006 151.104 423.496 150.939 423.628 150.661L424.899 147.907C426.938 147.775 428.93 147.47 430.843 146.987L434.331 149.006C434.682 149.205 435.252 149.205 435.602 149.006L444.949 143.611C445.293 143.406 445.293 143.075 444.949 142.877L441.454 140.864C442.288 139.759 442.811 138.607 443.049 137.436L447.822 136.694C448.292 136.621 448.576 136.337 448.45 136.059ZM430.347 140.573C426.071 143.042 419.147 143.042 414.871 140.573C414.467 140.341 414.103 140.097 413.772 139.838C410.634 137.363 410.998 133.881 414.877 131.637C419.147 129.175 426.071 129.175 430.34 131.637C434.212 133.874 434.576 137.356 431.445 139.838C431.121 140.09 430.75 140.341 430.347 140.573Z" fill="white"/>
<g filter="url(#filter24_f_7427_46260)">
<path d="M485.43 206.051L485.099 138.379L421.884 176.771V247.598L485.43 206.051Z" fill="url(#paint27_linear_7427_46260)" fill-opacity="0.2"/>
</g>
<g style="mix-blend-mode:color-dodge">
<g filter="url(#filter25_f_7427_46260)">
<line x1="268.696" y1="434.282" x2="269.372" y2="369.413" stroke="url(#paint28_linear_7427_46260)" stroke-width="0.661932"/>
</g>
<line x1="268.862" y1="434.283" x2="269.538" y2="369.414" stroke="url(#paint29_linear_7427_46260)" stroke-width="0.330966"/>
</g>
<g filter="url(#filter26_f_7427_46260)">
<path d="M402.738 403.814L269.027 483.933V344.291L402.738 264.172V403.814Z" fill="url(#paint30_linear_7427_46260)" fill-opacity="0.2"/>
</g>
<g filter="url(#filter27_f_7427_46260)">
<path d="M419.617 292.789L419.341 225.117L373.282 252.587V320.766L419.617 292.789Z" fill="url(#paint31_linear_7427_46260)" fill-opacity="0.2"/>
</g>
<g filter="url(#filter28_f_7427_46260)">
<path d="M335.883 296.758L336.159 229.086L372.951 251.923V322.749L335.883 296.758Z" fill="url(#paint32_linear_7427_46260)" fill-opacity="0.2"/>
</g>
<g filter="url(#filter29_b_7427_46260)">
<path d="M418.824 222.938L372.844 250.565C372.113 251.002 371.206 251.002 370.483 250.565L338.339 231.258C336.837 230.351 336.837 228.155 338.339 227.256L384.311 199.629C385.042 199.191 385.949 199.191 386.672 199.629L418.816 218.935C420.318 219.843 420.318 222.038 418.816 222.938H418.824Z" fill="url(#paint33_linear_7427_46260)"/>
<path d="M418.466 223.037H418.457L418.765 222.852C420.202 221.992 420.203 219.889 418.765 219.02L386.621 199.714L386.62 199.714C385.93 199.296 385.062 199.295 384.362 199.714L418.466 223.037ZM418.466 223.037L372.793 250.479C372.094 250.898 371.226 250.898 370.535 250.48L370.534 250.479L338.39 231.173C336.952 230.304 336.953 228.202 338.39 227.341L338.39 227.341L384.362 199.714L418.466 223.037Z" stroke="white" stroke-width="0.19858"/>
</g>
<path d="M419.94 221.016V224.985C419.924 225.747 419.555 226.492 418.816 226.938L372.836 254.565C372.114 255.002 371.206 255.002 370.475 254.565L338.331 235.258C337.584 234.813 337.215 234.051 337.207 233.282V229.288C337.215 230.049 337.592 230.811 338.331 231.256L370.475 250.555C371.206 250.992 372.114 250.992 372.836 250.555L418.816 222.928C419.539 222.498 419.908 221.761 419.932 221.016H419.94Z" fill="white"/>
<path d="M390.503 223.339L390.404 217.141L380.311 217.215L383.911 214.965L394.004 214.891L394.103 221.09L390.503 223.339Z" fill="white"/>
<path d="M382.889 231.965L372.584 218.921L375.379 217.174L385.662 230.232L382.889 231.965Z" fill="white"/>
<path d="M374.328 233.446L364.234 233.493L364.135 227.322L367.757 225.058L367.811 231.257L377.95 231.183L374.328 233.446Z" fill="white"/>
</g>
<defs>
<filter id="filter0_b_7427_46260" x="444.078" y="86.1428" width="140.002" height="224.601" filterUnits="userSpaceOnUse" color-interpolation-filters="sRGB">
<feFlood flood-opacity="0" result="BackgroundImageFix"/>
<feGaussianBlur in="BackgroundImageFix" stdDeviation="3.97159"/>
<feComposite in2="SourceAlpha" operator="in" result="effect1_backgroundBlur_7427_46260"/>
<feBlend mode="normal" in="SourceGraphic" in2="effect1_backgroundBlur_7427_46260" result="shape"/>
</filter>
<filter id="filter1_f_7427_46260" x="450.532" y="92.5668" width="127.093" height="211.695" filterUnits="userSpaceOnUse" color-interpolation-filters="sRGB">
<feFlood flood-opacity="0" result="BackgroundImageFix"/>
<feBlend mode="normal" in="SourceGraphic" in2="BackgroundImageFix" result="shape"/>
<feGaussianBlur stdDeviation="0.661932" result="effect1_foregroundBlur_7427_46260"/>
</filter>
<filter id="filter2_b_7427_46260" x="415.223" y="104.26" width="140.002" height="224.601" filterUnits="userSpaceOnUse" color-interpolation-filters="sRGB">
<feFlood flood-opacity="0" result="BackgroundImageFix"/>
<feGaussianBlur in="BackgroundImageFix" stdDeviation="3.97159"/>
<feComposite in2="SourceAlpha" operator="in" result="effect1_backgroundBlur_7427_46260"/>
<feBlend mode="normal" in="SourceGraphic" in2="effect1_backgroundBlur_7427_46260" result="shape"/>
</filter>
<filter id="filter3_f_7427_46260" x="421.676" y="110.684" width="127.093" height="211.695" filterUnits="userSpaceOnUse" color-interpolation-filters="sRGB">
<feFlood flood-opacity="0" result="BackgroundImageFix"/>
<feBlend mode="normal" in="SourceGraphic" in2="BackgroundImageFix" result="shape"/>
<feGaussianBlur stdDeviation="0.661932" result="effect1_foregroundBlur_7427_46260"/>
</filter>
<filter id="filter4_b_7427_46260" x="389.053" y="121.037" width="140.002" height="224.601" filterUnits="userSpaceOnUse" color-interpolation-filters="sRGB">
<feFlood flood-opacity="0" result="BackgroundImageFix"/>
<feGaussianBlur in="BackgroundImageFix" stdDeviation="3.97159"/>
<feComposite in2="SourceAlpha" operator="in" result="effect1_backgroundBlur_7427_46260"/>
<feBlend mode="normal" in="SourceGraphic" in2="effect1_backgroundBlur_7427_46260" result="shape"/>
</filter>
<filter id="filter5_f_7427_46260" x="395.506" y="127.461" width="127.093" height="211.695" filterUnits="userSpaceOnUse" color-interpolation-filters="sRGB">
<feFlood flood-opacity="0" result="BackgroundImageFix"/>
<feBlend mode="normal" in="SourceGraphic" in2="BackgroundImageFix" result="shape"/>
<feGaussianBlur stdDeviation="0.661932" result="effect1_foregroundBlur_7427_46260"/>
</filter>
<filter id="filter6_f_7427_46260" x="231.961" y="125.826" width="269.737" height="165.485" filterUnits="userSpaceOnUse" color-interpolation-filters="sRGB">
<feFlood flood-opacity="0" result="BackgroundImageFix"/>
<feBlend mode="normal" in="SourceGraphic" in2="BackgroundImageFix" result="shape"/>
<feGaussianBlur stdDeviation="3.30966" result="effect1_foregroundBlur_7427_46260"/>
</filter>
<filter id="filter7_b_7427_46260" x="200.713" y="225.842" width="142.285" height="228.445" filterUnits="userSpaceOnUse" color-interpolation-filters="sRGB">
<feFlood flood-opacity="0" result="BackgroundImageFix"/>
<feGaussianBlur in="BackgroundImageFix" stdDeviation="3.97159"/>
<feComposite in2="SourceAlpha" operator="in" result="effect1_backgroundBlur_7427_46260"/>
<feBlend mode="normal" in="SourceGraphic" in2="effect1_backgroundBlur_7427_46260" result="shape"/>
</filter>
<filter id="filter8_f_7427_46260" x="207.002" y="232.098" width="129.708" height="215.87" filterUnits="userSpaceOnUse" color-interpolation-filters="sRGB">
<feFlood flood-opacity="0" result="BackgroundImageFix"/>
<feBlend mode="normal" in="SourceGraphic" in2="BackgroundImageFix" result="shape"/>
<feGaussianBlur stdDeviation="0.661932" result="effect1_foregroundBlur_7427_46260"/>
</filter>
<filter id="filter9_b_7427_46260" x="167.908" y="244.979" width="142.285" height="228.445" filterUnits="userSpaceOnUse" color-interpolation-filters="sRGB">
<feFlood flood-opacity="0" result="BackgroundImageFix"/>
<feGaussianBlur in="BackgroundImageFix" stdDeviation="3.97159"/>
<feComposite in2="SourceAlpha" operator="in" result="effect1_backgroundBlur_7427_46260"/>
<feBlend mode="normal" in="SourceGraphic" in2="effect1_backgroundBlur_7427_46260" result="shape"/>
</filter>
<filter id="filter10_f_7427_46260" x="174.198" y="251.235" width="129.708" height="215.87" filterUnits="userSpaceOnUse" color-interpolation-filters="sRGB">
<feFlood flood-opacity="0" result="BackgroundImageFix"/>
<feBlend mode="normal" in="SourceGraphic" in2="BackgroundImageFix" result="shape"/>
<feGaussianBlur stdDeviation="0.661932" result="effect1_foregroundBlur_7427_46260"/>
</filter>
<filter id="filter11_f_7427_46260" x="419.287" y="207.246" width="67.5163" height="67.5163" filterUnits="userSpaceOnUse" color-interpolation-filters="sRGB">
<feFlood flood-opacity="0" result="BackgroundImageFix"/>
<feBlend mode="normal" in="SourceGraphic" in2="BackgroundImageFix" result="shape"/>
<feGaussianBlur stdDeviation="6.61932" result="effect1_foregroundBlur_7427_46260"/>
</filter>
<filter id="filter12_b_7427_46260" x="135.106" y="264.115" width="142.285" height="228.445" filterUnits="userSpaceOnUse" color-interpolation-filters="sRGB">
<feFlood flood-opacity="0" result="BackgroundImageFix"/>
<feGaussianBlur in="BackgroundImageFix" stdDeviation="3.97159"/>
<feComposite in2="SourceAlpha" operator="in" result="effect1_backgroundBlur_7427_46260"/>
<feBlend mode="normal" in="SourceGraphic" in2="effect1_backgroundBlur_7427_46260" result="shape"/>
</filter>
<filter id="filter13_f_7427_46260" x="141.395" y="270.371" width="129.708" height="215.87" filterUnits="userSpaceOnUse" color-interpolation-filters="sRGB">
<feFlood flood-opacity="0" result="BackgroundImageFix"/>
<feBlend mode="normal" in="SourceGraphic" in2="BackgroundImageFix" result="shape"/>
<feGaussianBlur stdDeviation="0.661932" result="effect1_foregroundBlur_7427_46260"/>
</filter>
<filter id="filter14_f_7427_46260" x="144.916" y="199.303" width="233" height="149.926" filterUnits="userSpaceOnUse" color-interpolation-filters="sRGB">
<feFlood flood-opacity="0" result="BackgroundImageFix"/>
<feBlend mode="normal" in="SourceGraphic" in2="BackgroundImageFix" result="shape"/>
<feGaussianBlur stdDeviation="3.30966" result="effect1_foregroundBlur_7427_46260"/>
</filter>
<filter id="filter15_f_7427_46260" x="625.401" y="171.341" width="25.6919" height="17.3111" filterUnits="userSpaceOnUse" color-interpolation-filters="sRGB">
<feFlood flood-opacity="0" result="BackgroundImageFix"/>
<feBlend mode="normal" in="SourceGraphic" in2="BackgroundImageFix" result="shape"/>
<feGaussianBlur stdDeviation="1.32386" result="effect1_foregroundBlur_7427_46260"/>
</filter>
<filter id="filter16_f_7427_46260" x="124.319" y="203.446" width="25.6919" height="17.3111" filterUnits="userSpaceOnUse" color-interpolation-filters="sRGB">
<feFlood flood-opacity="0" result="BackgroundImageFix"/>
<feBlend mode="normal" in="SourceGraphic" in2="BackgroundImageFix" result="shape"/>
<feGaussianBlur stdDeviation="1.32386" result="effect1_foregroundBlur_7427_46260"/>
</filter>
<filter id="filter17_f_7427_46260" x="379.163" y="466.563" width="25.6919" height="17.3111" filterUnits="userSpaceOnUse" color-interpolation-filters="sRGB">
<feFlood flood-opacity="0" result="BackgroundImageFix"/>
<feBlend mode="normal" in="SourceGraphic" in2="BackgroundImageFix" result="shape"/>
<feGaussianBlur stdDeviation="1.32386" result="effect1_foregroundBlur_7427_46260"/>
</filter>
<filter id="filter18_f_7427_46260" x="511.548" y="385.145" width="25.6919" height="17.3111" filterUnits="userSpaceOnUse" color-interpolation-filters="sRGB">
<feFlood flood-opacity="0" result="BackgroundImageFix"/>
<feBlend mode="normal" in="SourceGraphic" in2="BackgroundImageFix" result="shape"/>
<feGaussianBlur stdDeviation="1.32386" result="effect1_foregroundBlur_7427_46260"/>
</filter>
<filter id="filter19_f_7427_46260" x="148.809" y="471.196" width="25.6919" height="17.3111" filterUnits="userSpaceOnUse" color-interpolation-filters="sRGB">
<feFlood flood-opacity="0" result="BackgroundImageFix"/>
<feBlend mode="normal" in="SourceGraphic" in2="BackgroundImageFix" result="shape"/>
<feGaussianBlur stdDeviation="1.32386" result="effect1_foregroundBlur_7427_46260"/>
</filter>
<filter id="filter20_b_7427_46260" x="275.043" y="116.381" width="139.678" height="91.2699" filterUnits="userSpaceOnUse" color-interpolation-filters="sRGB">
<feFlood flood-opacity="0" result="BackgroundImageFix"/>
<feGaussianBlur in="BackgroundImageFix" stdDeviation="3.30966"/>
<feComposite in2="SourceAlpha" operator="in" result="effect1_backgroundBlur_7427_46260"/>
<feBlend mode="normal" in="SourceGraphic" in2="effect1_backgroundBlur_7427_46260" result="shape"/>
</filter>
<filter id="filter21_f_7427_46260" x="278.352" y="163.376" width="68.8404" height="114.514" filterUnits="userSpaceOnUse" color-interpolation-filters="sRGB">
<feFlood flood-opacity="0" result="BackgroundImageFix"/>
<feBlend mode="normal" in="SourceGraphic" in2="BackgroundImageFix" result="shape"/>
<feGaussianBlur stdDeviation="1.32386" result="effect1_foregroundBlur_7427_46260"/>
</filter>
<filter id="filter22_f_7427_46260" x="341.237" y="162.716" width="68.8404" height="114.514" filterUnits="userSpaceOnUse" color-interpolation-filters="sRGB">
<feFlood flood-opacity="0" result="BackgroundImageFix"/>
<feBlend mode="normal" in="SourceGraphic" in2="BackgroundImageFix" result="shape"/>
<feGaussianBlur stdDeviation="1.32386" result="effect1_foregroundBlur_7427_46260"/>
</filter>
<filter id="filter23_b_7427_46260" x="352.381" y="91.3807" width="139.678" height="91.2699" filterUnits="userSpaceOnUse" color-interpolation-filters="sRGB">
<feFlood flood-opacity="0" result="BackgroundImageFix"/>
<feGaussianBlur in="BackgroundImageFix" stdDeviation="3.30966"/>
<feComposite in2="SourceAlpha" operator="in" result="effect1_backgroundBlur_7427_46260"/>
<feBlend mode="normal" in="SourceGraphic" in2="effect1_backgroundBlur_7427_46260" result="shape"/>
</filter>
<filter id="filter24_f_7427_46260" x="419.237" y="135.731" width="68.8404" height="114.514" filterUnits="userSpaceOnUse" color-interpolation-filters="sRGB">
<feFlood flood-opacity="0" result="BackgroundImageFix"/>
<feBlend mode="normal" in="SourceGraphic" in2="BackgroundImageFix" result="shape"/>
<feGaussianBlur stdDeviation="1.32386" result="effect1_foregroundBlur_7427_46260"/>
</filter>
<filter id="filter25_f_7427_46260" x="267.041" y="368.086" width="3.98562" height="67.5227" filterUnits="userSpaceOnUse" color-interpolation-filters="sRGB">
<feFlood flood-opacity="0" result="BackgroundImageFix"/>
<feBlend mode="normal" in="SourceGraphic" in2="BackgroundImageFix" result="shape"/>
<feGaussianBlur stdDeviation="0.661932" result="effect1_foregroundBlur_7427_46260"/>
</filter>
<filter id="filter26_f_7427_46260" x="266.38" y="261.524" width="139.006" height="225.057" filterUnits="userSpaceOnUse" color-interpolation-filters="sRGB">
<feFlood flood-opacity="0" result="BackgroundImageFix"/>
<feBlend mode="normal" in="SourceGraphic" in2="BackgroundImageFix" result="shape"/>
<feGaussianBlur stdDeviation="1.32386" result="effect1_foregroundBlur_7427_46260"/>
</filter>
<filter id="filter27_f_7427_46260" x="370.634" y="222.469" width="51.6314" height="100.944" filterUnits="userSpaceOnUse" color-interpolation-filters="sRGB">
<feFlood flood-opacity="0" result="BackgroundImageFix"/>
<feBlend mode="normal" in="SourceGraphic" in2="BackgroundImageFix" result="shape"/>
<feGaussianBlur stdDeviation="1.32386" result="effect1_foregroundBlur_7427_46260"/>
</filter>
<filter id="filter28_f_7427_46260" x="333.235" y="226.438" width="42.3638" height="98.9595" filterUnits="userSpaceOnUse" color-interpolation-filters="sRGB">
<feFlood flood-opacity="0" result="BackgroundImageFix"/>
<feBlend mode="normal" in="SourceGraphic" in2="BackgroundImageFix" result="shape"/>
<feGaussianBlur stdDeviation="1.32386" result="effect1_foregroundBlur_7427_46260"/>
</filter>
<filter id="filter29_b_7427_46260" x="331.917" y="194.005" width="93.3194" height="62.1847" filterUnits="userSpaceOnUse" color-interpolation-filters="sRGB">
<feFlood flood-opacity="0" result="BackgroundImageFix"/>
<feGaussianBlur in="BackgroundImageFix" stdDeviation="2.64773"/>
<feComposite in2="SourceAlpha" operator="in" result="effect1_backgroundBlur_7427_46260"/>
<feBlend mode="normal" in="SourceGraphic" in2="effect1_backgroundBlur_7427_46260" result="shape"/>
</filter>
<linearGradient id="paint0_linear_7427_46260" x1="192.243" y1="450.836" x2="76.5717" y2="515.961" gradientUnits="userSpaceOnUse">
<stop stop-color="#528DFF"/>
<stop offset="1" stop-color="white" stop-opacity="0"/>
<stop offset="1" stop-color="#528DFF" stop-opacity="0"/>
</linearGradient>
<linearGradient id="paint1_linear_7427_46260" x1="614.406" y1="413.021" x2="683.663" y2="334.668" gradientUnits="userSpaceOnUse">
<stop stop-color="#528DFF"/>
<stop offset="1" stop-color="white" stop-opacity="0"/>
<stop offset="1" stop-color="white" stop-opacity="0"/>
</linearGradient>
<linearGradient id="paint2_linear_7427_46260" x1="411.343" y1="494.524" x2="539.995" y2="572.958" gradientUnits="userSpaceOnUse">
<stop stop-color="#528DFF"/>
<stop offset="1" stop-color="white" stop-opacity="0"/>
<stop offset="1" stop-color="#528DFF" stop-opacity="0"/>
</linearGradient>
<linearGradient id="paint3_linear_7427_46260" x1="163.48" y1="207.662" x2="282.207" y2="158.694" gradientUnits="userSpaceOnUse">
<stop stop-color="#528DFF"/>
<stop offset="1" stop-color="white" stop-opacity="0"/>
<stop offset="1" stop-color="white" stop-opacity="0"/>
</linearGradient>
<linearGradient id="paint4_linear_7427_46260" x1="244.537" y1="168.853" x2="76.3436" y2="300.837" gradientUnits="userSpaceOnUse">
<stop stop-color="#528DFF"/>
<stop offset="1" stop-color="white" stop-opacity="0"/>
<stop offset="1" stop-color="#528DFF" stop-opacity="0"/>
</linearGradient>
<linearGradient id="paint5_linear_7427_46260" x1="129.39" y1="540.987" x2="63.4165" y2="387.577" gradientUnits="userSpaceOnUse">
<stop stop-color="#528DFF"/>
<stop offset="1" stop-color="white" stop-opacity="0"/>
<stop offset="1" stop-color="white" stop-opacity="0"/>
<stop offset="1" stop-color="#528DFF" stop-opacity="0"/>
</linearGradient>
<linearGradient id="paint6_linear_7427_46260" x1="700.939" y1="227.765" x2="583.759" y2="-28.1291" gradientUnits="userSpaceOnUse">
<stop offset="0.00520833" stop-color="#528DFF" stop-opacity="0"/>
<stop offset="0.361859" stop-color="#528DFF"/>
<stop offset="0.729167" stop-color="#528DFF" stop-opacity="0"/>
<stop offset="1" stop-color="white" stop-opacity="0"/>
<stop offset="1" stop-color="#528DFF" stop-opacity="0"/>
</linearGradient>
<linearGradient id="paint7_linear_7427_46260" x1="596.625" y1="216.689" x2="697.882" y2="149.829" gradientUnits="userSpaceOnUse">
<stop stop-color="#528DFF"/>
<stop offset="1" stop-color="white" stop-opacity="0"/>
<stop offset="1" stop-color="#528DFF" stop-opacity="0"/>
</linearGradient>
<linearGradient id="paint8_linear_7427_46260" x1="452.021" y1="109.214" x2="602.336" y2="341.367" gradientUnits="userSpaceOnUse">
<stop stop-color="#0047FF"/>
<stop offset="1" stop-color="#0047FF" stop-opacity="0"/>
</linearGradient>
<linearGradient id="paint9_linear_7427_46260" x1="423.166" y1="127.331" x2="573.481" y2="359.484" gradientUnits="userSpaceOnUse">
<stop stop-color="#0047FF"/>
<stop offset="1" stop-color="#0047FF" stop-opacity="0"/>
</linearGradient>
<linearGradient id="paint10_linear_7427_46260" x1="396.996" y1="144.109" x2="547.311" y2="376.261" gradientUnits="userSpaceOnUse">
<stop stop-color="#0047FF"/>
<stop offset="1" stop-color="#0047FF" stop-opacity="0"/>
</linearGradient>
<linearGradient id="paint11_linear_7427_46260" x1="439.476" y1="251.593" x2="146.903" y2="149.986" gradientUnits="userSpaceOnUse">
<stop stop-color="#0029FF" stop-opacity="0.33"/>
<stop offset="1" stop-color="#0029FF" stop-opacity="0"/>
</linearGradient>
<linearGradient id="paint12_linear_7427_46260" x1="251.819" y1="221.808" x2="376.593" y2="469.371" gradientUnits="userSpaceOnUse">
<stop stop-color="#2E4FFC"/>
<stop offset="1" stop-color="#1B5BFF" stop-opacity="0.23"/>
</linearGradient>
<linearGradient id="paint13_linear_7427_46260" x1="212.073" y1="223.876" x2="335.085" y2="440.855" gradientUnits="userSpaceOnUse">
<stop stop-color="#C4CEFF"/>
<stop offset="1" stop-color="#2E4FFC"/>
</linearGradient>
<linearGradient id="paint14_linear_7427_46260" x1="208.656" y1="249.192" x2="361.737" y2="485.617" gradientUnits="userSpaceOnUse">
<stop stop-color="#0047FF"/>
<stop offset="1" stop-color="#0047FF" stop-opacity="0"/>
</linearGradient>
<linearGradient id="paint15_linear_7427_46260" x1="179.268" y1="243.013" x2="302.28" y2="459.992" gradientUnits="userSpaceOnUse">
<stop stop-color="#C4CEFF"/>
<stop offset="1" stop-color="#2E4FFC"/>
</linearGradient>
<linearGradient id="paint16_linear_7427_46260" x1="175.852" y1="268.329" x2="328.933" y2="504.754" gradientUnits="userSpaceOnUse">
<stop stop-color="#0047FF"/>
<stop offset="1" stop-color="#0047FF" stop-opacity="0"/>
</linearGradient>
<linearGradient id="paint17_linear_7427_46260" x1="362.362" y1="268.141" x2="526.19" y2="382.986" gradientUnits="userSpaceOnUse">
<stop stop-color="#3D7FFF"/>
<stop offset="0.385417" stop-color="#4361FF" stop-opacity="0.723958"/>
<stop offset="1" stop-color="#4968ED" stop-opacity="0"/>
</linearGradient>
<linearGradient id="paint18_linear_7427_46260" x1="146.466" y1="262.149" x2="270.844" y2="498.947" gradientUnits="userSpaceOnUse">
<stop stop-color="#C4CEFF"/>
<stop offset="1" stop-color="#2E4FFC"/>
</linearGradient>
<linearGradient id="paint19_linear_7427_46260" x1="143.049" y1="287.465" x2="296.13" y2="523.891" gradientUnits="userSpaceOnUse">
<stop stop-color="white" stop-opacity="0.6"/>
<stop offset="1" stop-color="white" stop-opacity="0"/>
</linearGradient>
<linearGradient id="paint20_linear_7427_46260" x1="282.929" y1="225.118" x2="222.693" y2="312.824" gradientUnits="userSpaceOnUse">
<stop stop-color="white" stop-opacity="0"/>
<stop offset="1" stop-color="white"/>
</linearGradient>
<linearGradient id="paint21_linear_7427_46260" x1="258.043" y1="138.587" x2="300.755" y2="239.957" gradientUnits="userSpaceOnUse">
<stop offset="0.0590643" stop-color="#48B7FF"/>
<stop offset="0.453099" stop-color="#5B75FF"/>
<stop offset="0.916667" stop-color="#5B6AFF" stop-opacity="0"/>
</linearGradient>
<linearGradient id="paint22_linear_7427_46260" x1="291.591" y1="180.255" x2="396.176" y2="205.74" gradientUnits="userSpaceOnUse">
<stop stop-color="white"/>
<stop offset="1" stop-color="#2E4FFC"/>
</linearGradient>
<linearGradient id="paint23_linear_7427_46260" x1="313.104" y1="192.319" x2="304.894" y2="228.874" gradientUnits="userSpaceOnUse">
<stop stop-color="white"/>
<stop offset="0.941354" stop-color="white" stop-opacity="0"/>
</linearGradient>
<linearGradient id="paint24_linear_7427_46260" x1="375.326" y1="191.659" x2="383.536" y2="228.213" gradientUnits="userSpaceOnUse">
<stop stop-color="white"/>
<stop offset="0.941354" stop-color="white" stop-opacity="0"/>
</linearGradient>
<linearGradient id="paint25_linear_7427_46260" x1="422.545" y1="235.02" x2="422.559" y2="91.0497" gradientUnits="userSpaceOnUse">
<stop stop-color="white" stop-opacity="0.6"/>
<stop offset="1" stop-color="white" stop-opacity="0"/>
</linearGradient>
<linearGradient id="paint26_linear_7427_46260" x1="380.844" y1="158.896" x2="503.301" y2="152.608" gradientUnits="userSpaceOnUse">
<stop stop-color="white"/>
<stop offset="1" stop-color="#2E4FFC"/>
</linearGradient>
<linearGradient id="paint27_linear_7427_46260" x1="453.326" y1="164.674" x2="461.536" y2="201.229" gradientUnits="userSpaceOnUse">
<stop stop-color="white"/>
<stop offset="0.941354" stop-color="white" stop-opacity="0"/>
</linearGradient>
<linearGradient id="paint28_linear_7427_46260" x1="269.102" y1="427.15" x2="269.642" y2="375.254" gradientUnits="userSpaceOnUse">
<stop stop-color="white" stop-opacity="0"/>
<stop stop-color="white" stop-opacity="0"/>
<stop offset="0.557292" stop-color="white"/>
<stop offset="1" stop-color="white" stop-opacity="0"/>
</linearGradient>
<linearGradient id="paint29_linear_7427_46260" x1="269.102" y1="427.15" x2="269.642" y2="375.254" gradientUnits="userSpaceOnUse">
<stop stop-color="white" stop-opacity="0"/>
<stop stop-color="white" stop-opacity="0"/>
<stop offset="0.557292" stop-color="white"/>
<stop offset="1" stop-color="white" stop-opacity="0"/>
</linearGradient>
<linearGradient id="paint30_linear_7427_46260" x1="283.359" y1="393.938" x2="385.044" y2="394.619" gradientUnits="userSpaceOnUse">
<stop stop-color="white"/>
<stop offset="1" stop-color="white" stop-opacity="0"/>
</linearGradient>
<linearGradient id="paint31_linear_7427_46260" x1="399.814" y1="241.307" x2="409.463" y2="277.106" gradientUnits="userSpaceOnUse">
<stop stop-color="white"/>
<stop offset="0.941354" stop-color="white" stop-opacity="0"/>
</linearGradient>
<linearGradient id="paint32_linear_7427_46260" x1="355.686" y1="245.276" x2="346.037" y2="281.074" gradientUnits="userSpaceOnUse">
<stop stop-color="white"/>
<stop offset="0.941354" stop-color="white" stop-opacity="0"/>
</linearGradient>
<linearGradient id="paint33_linear_7427_46260" x1="393.471" y1="160.905" x2="361.036" y2="261.187" gradientUnits="userSpaceOnUse">
<stop stop-color="white" stop-opacity="0.66"/>
<stop offset="1" stop-color="white" stop-opacity="0"/>
</linearGradient>
<clipPath id="clip0_7427_46260">
<rect width="700" height="600" fill="white"/>
</clipPath>
</defs>
</svg>
